<svg width="41" height="41" viewBox="0 0 41 41" fill="none" xmlns="http://www.w3.org/2000/svg">
<rect x="-0.5" y="0.5" width="40" height="40" rx="9.5" transform="matrix(-1 0 0 1 40 0)" fill="white" fill-opacity="0.11" stroke="url(#paint0_linear_3_2107)"/>
<path d="M12.5 12.9167H19.5833C19.9591 12.9167 20.3194 13.066 20.5851 13.3317C20.8508 13.5974 21 13.9577 21 14.3334C21 14.7091 20.8508 15.0695 20.5851 15.3351C20.3194 15.6008 19.9591 15.7501 19.5833 15.7501H12.5C12.1243 15.7501 11.764 15.6008 11.4983 15.3351C11.2326 15.0695 11.0833 14.7091 11.0833 14.3334C11.0833 13.9577 11.2326 13.5974 11.4983 13.3317C11.764 13.066 12.1243 12.9167 12.5 12.9167ZM22.4167 24.2501H29.5C29.8757 24.2501 30.2361 24.3993 30.5017 24.665C30.7674 24.9307 30.9167 25.291 30.9167 25.6667C30.9167 26.0425 30.7674 26.4028 30.5017 26.6685C30.2361 26.9342 29.8757 27.0834 29.5 27.0834H22.4167C22.041 27.0834 21.6806 26.9342 21.4149 26.6685C21.1493 26.4028 21 26.0425 21 25.6667C21 25.291 21.1493 24.9307 21.4149 24.665C21.6806 24.3993 22.041 24.2501 22.4167 24.2501ZM12.5 18.5834H29.5C29.8757 18.5834 30.2361 18.7327 30.5017 18.9983C30.7674 19.264 30.9167 19.6244 30.9167 20.0001C30.9167 20.3758 30.7674 20.7361 30.5017 21.0018C30.2361 21.2675 29.8757 21.4167 29.5 21.4167H12.5C12.1243 21.4167 11.764 21.2675 11.4983 21.0018C11.2326 20.7361 11.0833 20.3758 11.0833 20.0001C11.0833 19.6244 11.2326 19.264 11.4983 18.9983C11.764 18.7327 12.1243 18.5834 12.5 18.5834Z" fill="white"/>
<path d="M12.5 18.5833H29.5C29.8757 18.5833 30.2361 18.7325 30.5017 18.9982C30.7674 19.2639 30.9167 19.6242 30.9167 19.9999C30.9167 20.3756 30.7674 20.736 30.5017 21.0017C30.2361 21.2673 29.8757 21.4166 29.5 21.4166H12.5C12.1243 21.4166 11.764 21.2673 11.4983 21.0017C11.2326 20.736 11.0833 20.3756 11.0833 19.9999C11.0833 19.6242 11.2326 19.2639 11.4983 18.9982C11.764 18.7325 12.1243 18.5833 12.5 18.5833Z" fill="#2169F5"/>
<defs>
<linearGradient id="paint0_linear_3_2107" x1="-0.714466" y1="3.08356" x2="45.223" y2="25.3914" gradientUnits="userSpaceOnUse">
<stop stop-color="#05374B"/>
<stop offset="0.49" stop-color="#95DCF8"/>
<stop offset="1" stop-color="#023A51"/>
</linearGradient>
</defs>
</svg>
