<svg width="42" height="42" viewBox="0 0 42 42" fill="none" xmlns="http://www.w3.org/2000/svg">
<g filter="url(#filter0_b_3_411)">
<rect width="42" height="42" rx="10" fill="white" fill-opacity="0.05"/>
<rect x="0.5" y="0.5" width="41" height="41" rx="9.5" stroke="white" stroke-opacity="0.07"/>
<path d="M30.375 12.75V16.5C30.375 16.7984 30.2565 17.0845 30.0455 17.2955C29.8345 17.5065 29.5484 17.625 29.25 17.625C28.9516 17.625 28.6655 17.5065 28.4545 17.2955C28.2435 17.0845 28.125 16.7984 28.125 16.5V13.875H25.5C25.2016 13.875 24.9155 13.7565 24.7045 13.5455C24.4935 13.3345 24.375 13.0484 24.375 12.75C24.375 12.4516 24.4935 12.1655 24.7045 11.9545C24.9155 11.7435 25.2016 11.625 25.5 11.625H29.25C29.5484 11.625 29.8345 11.7435 30.0455 11.9545C30.2565 12.1655 30.375 12.4516 30.375 12.75ZM16.5 28.125H13.875V25.5C13.875 25.2016 13.7565 24.9155 13.5455 24.7045C13.3345 24.4935 13.0484 24.375 12.75 24.375C12.4516 24.375 12.1655 24.4935 11.9545 24.7045C11.7435 24.9155 11.625 25.2016 11.625 25.5V29.25C11.625 29.5484 11.7435 29.8345 11.9545 30.0455C12.1655 30.2565 12.4516 30.375 12.75 30.375H16.5C16.7984 30.375 17.0845 30.2565 17.2955 30.0455C17.5065 29.8345 17.625 29.5484 17.625 29.25C17.625 28.9516 17.5065 28.6655 17.2955 28.4545C17.0845 28.2435 16.7984 28.125 16.5 28.125ZM29.25 24.375C28.9516 24.375 28.6655 24.4935 28.4545 24.7045C28.2435 24.9155 28.125 25.2016 28.125 25.5V28.125H25.5C25.2016 28.125 24.9155 28.2435 24.7045 28.4545C24.4935 28.6655 24.375 28.9516 24.375 29.25C24.375 29.5484 24.4935 29.8345 24.7045 30.0455C24.9155 30.2565 25.2016 30.375 25.5 30.375H29.25C29.5484 30.375 29.8345 30.2565 30.0455 30.0455C30.2565 29.8345 30.375 29.5484 30.375 29.25V25.5C30.375 25.2016 30.2565 24.9155 30.0455 24.7045C29.8345 24.4935 29.5484 24.375 29.25 24.375ZM12.75 17.625C13.0484 17.625 13.3345 17.5065 13.5455 17.2955C13.7565 17.0845 13.875 16.7984 13.875 16.5V13.875H16.5C16.7984 13.875 17.0845 13.7565 17.2955 13.5455C17.5065 13.3345 17.625 13.0484 17.625 12.75C17.625 12.4516 17.5065 12.1655 17.2955 11.9545C17.0845 11.7435 16.7984 11.625 16.5 11.625H12.75C12.4516 11.625 12.1655 11.7435 11.9545 11.9545C11.7435 12.1655 11.625 12.4516 11.625 12.75V16.5C11.625 16.7984 11.7435 17.0845 11.9545 17.2955C12.1655 17.5065 12.4516 17.625 12.75 17.625ZM16.875 15.75H25.125C25.4234 15.75 25.7095 15.8685 25.9205 16.0795C26.1315 16.2905 26.25 16.5766 26.25 16.875V25.125C26.25 25.4234 26.1315 25.7095 25.9205 25.9205C25.7095 26.1315 25.4234 26.25 25.125 26.25H16.875C16.5766 26.25 16.2905 26.1315 16.0795 25.9205C15.8685 25.7095 15.75 25.4234 15.75 25.125V16.875C15.75 16.5766 15.8685 16.2905 16.0795 16.0795C16.2905 15.8685 16.5766 15.75 16.875 15.75ZM18 24H24V18H18V24Z" fill="#2169F5"/>
</g>
<defs>
<filter id="filter0_b_3_411" x="-20" y="-20" width="82" height="82" filterUnits="userSpaceOnUse" color-interpolation-filters="sRGB">
<feFlood flood-opacity="0" result="BackgroundImageFix"/>
<feGaussianBlur in="BackgroundImageFix" stdDeviation="10"/>
<feComposite in2="SourceAlpha" operator="in" result="effect1_backgroundBlur_3_411"/>
<feBlend mode="normal" in="SourceGraphic" in2="effect1_backgroundBlur_3_411" result="shape"/>
</filter>
</defs>
</svg>
