<svg width="190" height="48" viewBox="0 0 190 48" fill="none" xmlns="http://www.w3.org/2000/svg">
<path d="M14.9231 17.5342V0L0.384277 24.1379L14.9231 17.5342Z" fill="#8891B1"/>
<path d="M14.9231 32.7386V17.5342L0.384277 24.1379L14.9231 32.7386ZM14.9231 17.5342L29.4794 24.1379L14.9231 0V17.5342Z" fill="#63688E"/>
<path d="M14.9231 17.5342V32.7386L29.4794 24.138L14.9231 17.5342Z" fill="#464A75"/>
<path d="M14.9231 35.4889L0.384277 26.9058L14.9231 47.4002V35.4889Z" fill="#8891B1"/>
<path d="M29.4794 26.9058L14.9231 35.4889V47.4002L29.4794 26.9058Z" fill="#63688E"/>
<path d="M53.7926 27.396C53.7926 27.7288 53.4948 28.0266 53.162 28.0266H41.5309C41.8287 30.7942 43.9832 33.4918 47.0311 33.4918C49.1156 33.4918 50.6571 32.686 51.8307 31.0044C51.9533 30.8293 52.1285 30.7067 52.3387 30.7067C52.6715 30.7067 52.9167 30.9519 52.9167 31.2847C52.9167 31.4073 52.8817 31.4949 52.8291 31.5825C51.6555 33.6319 49.3258 34.6304 47.0311 34.6304C43.1074 34.6304 40.3223 31.1271 40.3223 27.3785C40.3223 23.6299 43.1074 20.1441 47.0311 20.1441C50.9549 20.1441 53.7926 23.6474 53.7926 27.396ZM52.5314 26.8355C52.2861 23.8752 50.079 21.3352 47.0311 21.3352C43.9832 21.3352 41.8112 23.8752 41.5309 26.8355H52.5314ZM67.9285 20.3368C68.2613 20.3368 68.5065 20.6346 68.5065 20.9324C68.5065 21.2652 68.2613 21.5279 67.9285 21.5279H64.8105V33.8246C64.8105 34.1224 64.5478 34.4027 64.215 34.4027C63.8821 34.4027 63.6194 34.1049 63.6194 33.8246V21.5279H60.6241C60.2912 21.5279 60.046 21.2652 60.046 20.9324C60.046 20.6346 60.2912 20.3368 60.6241 20.3368H63.6194V15.8876C63.6194 15.5548 63.8821 15.3095 64.215 15.3095C64.5478 15.3095 64.8105 15.5548 64.8105 15.8876V20.3368H67.9285ZM86.8815 26.31V33.737C86.8815 34.0698 86.6888 34.3151 86.391 34.3151C86.0582 34.3151 85.9006 34.0698 85.9006 33.737V26.31C85.9006 23.8051 84.4467 21.3002 81.644 21.3002C78.0531 21.3002 76.4591 24.4357 76.6518 27.6412C76.6518 27.7288 76.6343 28.0967 76.6343 28.1492V33.737C76.6343 34.0698 76.4766 34.3151 76.1438 34.3151C75.811 34.3151 75.6533 34.0698 75.6533 33.737V9.33635C75.6533 9.03857 75.811 8.7583 76.1438 8.7583C76.4766 8.7583 76.6343 9.05608 76.6343 9.33635V23.1395C77.8254 21.3528 79.4194 20.1441 81.5039 20.1441C84.9196 20.1441 86.8815 23.1395 86.8815 26.31ZM107.866 27.396C107.866 27.7288 107.569 28.0266 107.236 28.0266H95.6048C95.9026 30.7942 98.0571 33.4918 101.105 33.4918C103.189 33.4918 104.731 32.686 105.905 31.0044C106.027 30.8293 106.202 30.7067 106.413 30.7067C106.745 30.7067 106.991 30.9519 106.991 31.2847C106.991 31.4073 106.956 31.4949 106.903 31.5825C105.729 33.6319 103.4 34.6304 101.105 34.6304C97.1813 34.6304 94.3961 31.1271 94.3961 27.3785C94.3961 23.6299 97.1813 20.1441 101.105 20.1441C105.029 20.1441 107.866 23.6474 107.866 27.396ZM106.623 26.8355C106.378 23.8752 104.17 21.3352 101.123 21.3352C98.0746 21.3352 95.9026 23.8752 95.6223 26.8355H106.623ZM122.178 20.9324C122.178 21.3002 121.967 21.5104 121.617 21.563C118.201 22.0709 116.642 24.8561 116.642 28.1142V33.6845C116.642 34.0173 116.38 34.2625 116.047 34.2625C115.714 34.2625 115.451 34.0173 115.451 33.6845V20.9674C115.451 20.6346 115.714 20.3894 116.047 20.3894C116.38 20.3894 116.642 20.6346 116.642 20.9674V23.5599C117.623 21.9308 119.533 20.3894 121.529 20.3894C121.827 20.3894 122.178 20.5996 122.178 20.9324ZM141.306 27.396C141.306 27.7288 141.008 28.0266 140.675 28.0266H129.044C129.342 30.7942 131.496 33.4918 134.544 33.4918C136.629 33.4918 138.17 32.686 139.344 31.0044C139.466 30.8293 139.642 30.7067 139.852 30.7067C140.185 30.7067 140.43 30.9519 140.43 31.2847C140.43 31.4073 140.395 31.4949 140.342 31.5825C139.169 33.6319 136.839 34.6304 134.544 34.6304C130.621 34.6304 127.835 31.1271 127.835 27.3785C127.835 23.6299 130.621 20.1441 134.544 20.1441C138.468 20.1266 141.306 23.6474 141.306 27.396ZM140.062 26.8355C139.817 23.8752 137.61 21.3352 134.562 21.3352C131.514 21.3352 129.342 23.8752 129.062 26.8355H140.062ZM160.206 21.055V33.8071C160.206 34.1399 159.908 34.3851 159.611 34.3851C159.278 34.3851 159.015 34.1399 159.015 33.8071V31.4073C158.034 33.3166 156.335 34.7004 154.163 34.7004C150.695 34.7004 148.768 31.7051 148.768 28.5346V21.0725C148.768 20.7747 149.031 20.4945 149.363 20.4945C149.696 20.4945 149.959 20.7922 149.959 21.0725V28.5346C149.959 31.0395 151.378 33.5443 154.18 33.5443C158.104 33.5443 159.033 29.8834 159.033 25.837V21.09C159.033 20.7922 159.295 20.512 159.628 20.512C159.908 20.4769 160.206 20.7747 160.206 21.055ZM189.564 26.2749V33.737C189.564 34.0698 189.266 34.3151 188.968 34.3151C188.636 34.3151 188.373 34.0698 188.373 33.737V26.2749C188.373 23.7701 186.954 21.3177 184.151 21.3177C180.648 21.3177 179.299 25.0663 179.299 27.9916V33.737C179.299 34.0698 179.002 34.3151 178.704 34.3151C178.371 34.3151 178.108 34.0698 178.108 33.737V26.2749C178.108 23.7701 176.724 21.3177 173.939 21.3177C170.401 21.3177 168.929 24.1029 169.052 27.8164V33.737C169.052 34.0698 168.789 34.3151 168.457 34.3151C168.124 34.3151 167.861 34.0698 167.861 33.737V20.9849C167.861 20.6521 168.124 20.4069 168.457 20.4069C168.789 20.4069 169.052 20.6521 169.052 20.9849V23.1044C170.033 21.3177 171.872 20.1441 173.957 20.1441C176.339 20.1441 178.178 21.6505 178.931 23.8576C179.895 21.6856 181.769 20.1441 184.186 20.1441C187.62 20.1441 189.564 23.1044 189.564 26.2749Z" fill="#8891B1"/>
</svg>
