<svg width="173" height="40" viewBox="0 0 173 40" fill="none" xmlns="http://www.w3.org/2000/svg">
<path d="M67.2563 12.1231C68.065 12.9314 68.8737 13.7396 69.6823 14.5478C70.491 15.356 70.491 16.9724 70.491 18.5888C70.491 20.2052 70.491 21.8216 69.6823 22.6298C69.6823 25.0544 68.065 25.8626 67.2563 26.6708C65.6389 26.6708 64.8303 27.4791 63.2129 27.4791C62.4042 27.4791 61.5956 27.479 60.7869 26.6708C59.9782 26.6708 59.1695 25.8626 58.3609 25.8626V33.9447H53.5088V12.1231H57.5522L58.3609 13.7396C59.9782 12.1231 61.5956 11.3149 64.0216 11.3149C64.8303 11.3149 66.4476 11.3149 67.2563 12.1231ZM64.8303 22.6298C65.6389 21.8216 66.4476 21.0134 66.4476 19.397C66.4476 17.7806 65.6389 16.9724 64.8303 16.1642C64.0216 15.356 63.2129 15.356 62.4042 15.356C61.5956 15.356 60.7869 15.356 59.9782 16.1642C59.1695 16.1642 59.1695 16.9724 58.3609 17.7806V21.0134C58.3609 21.8216 59.1695 22.6298 59.9782 22.6298C59.9782 23.438 60.7869 23.438 61.5956 23.438C63.2129 23.438 64.0216 23.438 64.8303 22.6298Z" fill="#8247E5"/>
<path d="M73.7257 15.3559C74.5343 14.5477 75.343 12.9313 76.9604 12.9313C78.5777 12.123 79.3864 12.123 81.0038 12.123C82.6211 12.123 84.2385 12.123 85.0471 12.9313C85.8558 13.7395 87.4732 14.5477 88.2819 16.1641C89.0905 16.9723 89.0905 18.5887 89.0905 20.2051C89.0905 21.8215 89.0905 22.6297 88.2819 24.2461C87.4732 25.0543 86.6645 26.6707 85.0471 26.6707C84.2385 27.479 82.6211 27.479 81.0038 27.479C79.3864 27.479 77.7691 27.479 76.9604 26.6707C76.1517 25.8625 74.5343 25.0543 73.7257 24.2461C72.917 23.4379 72.917 21.8215 72.917 20.2051C72.917 17.7805 72.917 16.1641 73.7257 15.3559ZM78.5777 22.6297C79.3864 23.4379 80.1951 23.4379 81.0038 23.4379C81.8124 23.4379 82.6211 22.6297 83.4298 22.6297C84.2385 22.6297 84.2385 21.0133 84.2385 19.3969C84.2385 17.7805 84.2385 16.9723 83.4298 16.1641C82.6211 15.3559 81.8124 15.3559 81.0038 15.3559C80.1951 15.3559 79.3864 16.1641 78.5777 16.1641C77.7691 16.9723 77.769 17.7805 77.769 19.3969C77.769 20.2051 77.7691 21.8215 78.5777 22.6297Z" fill="#8247E5"/>
<path d="M97.1773 0V26.6708H92.3252V0H97.1773Z" fill="#8247E5"/>
<path d="M116.586 12.123L106.881 33.9446H102.029L105.264 25.8625L98.7947 12.123H104.455L108.499 21.0133L112.542 12.123C111.734 12.123 116.586 12.123 116.586 12.123Z" fill="#8247E5"/>
<path d="M134.376 12.1231V26.6708C134.376 28.2873 134.376 29.0955 133.568 30.7119C132.759 32.3283 131.95 32.3283 130.333 33.1365C128.716 33.9447 127.098 33.9447 125.481 33.9447C124.672 33.9447 123.055 33.9447 122.246 33.1365C121.438 33.1365 120.629 32.3283 119.82 32.3283C119.011 32.3283 118.203 31.5201 117.394 30.7119L119.82 27.4791C121.438 29.0955 122.246 29.0955 123.055 29.9037C123.864 30.7119 124.672 30.7119 125.481 30.7119C126.29 30.7119 127.907 30.7119 128.716 29.9037C129.524 29.0955 129.524 28.2873 129.524 27.4791V25.0544C128.716 25.8626 128.716 26.6708 127.098 26.6708C126.29 27.479 124.672 27.4791 123.864 27.4791C123.055 27.4791 121.438 27.479 119.82 26.6708C119.011 25.8626 118.203 25.0544 117.394 24.2462C116.585 21.8216 116.585 21.0134 116.585 19.397C116.585 17.7806 116.585 16.9724 117.394 15.356C118.203 13.7396 119.011 12.9314 120.629 12.1231C121.438 11.3149 123.055 11.3149 123.864 11.3149C124.672 11.3149 126.29 11.3149 127.098 12.1231C127.907 12.1231 128.716 12.9314 129.524 13.7396L130.333 12.9314H134.376V12.1231ZM129.524 21.0134V17.7806C129.524 16.9724 128.716 16.1642 127.907 16.1642C127.098 16.1642 126.29 15.356 125.481 15.356C124.672 15.356 123.055 16.1642 122.246 16.1642C121.438 16.9724 121.438 17.7806 121.438 19.397C121.438 20.2052 121.438 21.8216 122.246 22.6298C123.055 23.438 123.864 24.2462 125.481 24.2462C127.098 23.438 128.716 22.6298 129.524 21.0134Z" fill="#8247E5"/>
<path d="M138.42 15.356C139.229 13.7396 140.037 12.9314 140.846 12.1231C142.463 11.3149 143.272 11.3149 144.889 11.3149C146.507 11.3149 148.124 11.3149 148.933 12.1231C149.741 12.9314 151.359 13.7396 152.167 14.5478C152.976 16.1642 152.976 16.9724 152.976 18.5888C152.976 20.2052 152.976 21.8216 152.167 22.6298C151.359 24.2462 150.55 25.0544 148.933 25.8626C148.124 26.6709 146.507 26.6708 144.889 26.6708C143.272 26.6708 141.655 26.6709 140.846 25.8626C139.229 25.0544 138.42 24.2462 137.611 23.438C136.802 21.8216 136.802 21.0134 136.802 19.397C136.802 17.7806 137.611 16.1642 138.42 15.356ZM142.463 22.6298C143.272 23.438 144.081 23.438 144.889 23.438C145.698 23.438 146.507 22.6298 147.315 22.6298C148.124 22.6298 148.933 20.2052 148.933 19.397C148.933 17.7806 148.933 16.9724 148.124 16.1642C147.315 15.356 146.507 15.356 145.698 15.356C144.889 15.356 144.081 16.1642 143.272 16.1642C142.463 16.9724 142.463 17.7806 142.463 19.397C141.655 20.2052 142.463 21.8216 142.463 22.6298Z" fill="#8247E5"/>
<path d="M170.767 12.9314C171.576 13.7396 172.384 14.5478 172.384 16.1642V27.4791H167.532V17.7806C167.532 16.1642 166.724 15.356 165.106 15.356C164.298 15.356 163.489 16.1642 162.68 16.9724C161.872 17.7806 161.063 19.397 161.063 21.0134V26.6708H157.02V12.1231H161.063V14.5478C161.872 13.7396 162.68 12.9314 163.489 12.1231C164.298 11.3149 165.915 11.3149 166.724 11.3149C168.341 11.3149 169.15 12.1231 170.767 12.9314Z" fill="#8247E5"/>
<path d="M33.2915 12.1232C32.4828 11.315 31.6741 11.315 30.8655 12.1232L24.3961 15.356L20.3527 17.7806L13.8833 21.8217C13.0746 22.6299 12.2659 22.6299 11.4572 21.8217L5.79648 18.5888C4.9878 18.5888 4.9878 17.7806 4.9878 16.1642V10.5068C4.9878 9.69856 5.79648 8.89036 6.60516 8.08215L11.4572 5.65754C12.2659 4.84933 13.0746 4.84933 13.8833 5.65754L18.7353 8.08215C19.544 8.89036 20.3527 9.69856 20.3527 10.5068V14.5478L24.3961 12.1232V8.08215C24.3961 7.27395 23.5874 6.46574 22.7787 5.65754L13.8833 0.808303C13.0746 9.70215e-05 12.2659 9.70215e-05 11.4572 0.808303L1.7531 5.65754C0.944419 6.46574 0.135742 7.27395 0.135742 8.08215V18.5888C0.135742 20.2052 0.944419 21.0134 1.7531 21.0134L11.4572 26.6709C12.2659 27.4791 13.0746 27.4791 13.8833 26.6709L20.3527 23.4381L24.3961 21.0134L30.8655 17.7806C31.6741 16.9724 32.4828 16.9724 33.2915 17.7806L38.1436 20.2052C38.9522 20.2052 39.7609 21.0134 39.7609 21.8217V27.4791C39.7609 28.2873 38.9522 29.0955 38.1436 29.9037L33.2915 33.1365C32.4828 33.9447 31.6741 33.9447 30.8655 33.1365L26.0134 29.9037C25.2047 29.9037 24.3961 29.0955 24.3961 28.2873V24.2463L20.3527 26.6709V30.7119C20.3527 31.5201 21.1613 32.3283 21.97 33.1365L31.6741 38.794C32.4828 39.6022 33.2915 39.6022 34.1002 38.794L43.8043 33.1365C43.8043 32.3283 44.613 31.5201 44.613 30.7119V19.397C44.613 18.5888 43.8043 17.7806 42.9956 16.9724L33.2915 12.1232Z" fill="#8247E5"/>
</svg>
