<svg width="211" height="32" viewBox="0 0 211 32" fill="none" xmlns="http://www.w3.org/2000/svg">
<g clip-path="url(#clip0_3_637)">
<mask id="mask0_3_637" style="mask-type:luminance" maskUnits="userSpaceOnUse" x="0" y="0" width="211" height="32">
<path d="M0.135742 0.200195H210.136V31.2002H0.135742V0.200195Z" fill="white"/>
</mask>
<g mask="url(#mask0_3_637)">
<path d="M35.4165 24.6419L29.6561 30.7773C29.5315 30.9106 29.3806 31.0169 29.2128 31.0897C29.045 31.1625 28.864 31.2002 28.6809 31.2003H1.37436C1.24412 31.2003 1.11673 31.1625 1.00779 31.0916C0.898844 31.0207 0.813074 30.9198 0.760981 30.8012C0.708887 30.6826 0.692731 30.5515 0.714492 30.424C0.736252 30.2964 0.794983 30.1779 0.883495 30.083L6.63736 23.9476C6.76195 23.8144 6.91285 23.708 7.08064 23.6352C7.24842 23.5625 7.42951 23.5248 7.6126 23.5246H34.9191C35.0505 23.5219 35.1798 23.5579 35.2907 23.628C35.4016 23.6982 35.4892 23.7993 35.5423 23.9187C35.5955 24.0382 35.6119 24.1705 35.5895 24.2992C35.5671 24.4279 35.5069 24.5471 35.4165 24.6419ZM29.6561 12.2839C29.531 12.1512 29.38 12.0453 29.2124 11.9726C29.0447 11.8998 28.8638 11.8618 28.6809 11.8609H1.37436C1.24412 11.8609 1.11673 11.8987 1.00779 11.9696C0.898844 12.0405 0.813074 12.1414 0.760981 12.26C0.708887 12.3786 0.692731 12.5097 0.714492 12.6372C0.736252 12.7648 0.794983 12.8832 0.883495 12.9781L6.63736 19.1168C6.76243 19.2495 6.91342 19.3554 7.0811 19.4281C7.24878 19.5009 7.42963 19.5389 7.6126 19.5398H34.9191C35.0491 19.5391 35.176 19.5009 35.2845 19.4297C35.3929 19.3586 35.4782 19.2577 35.5299 19.1392C35.5816 19.0208 35.5975 18.8899 35.5756 18.7627C35.5537 18.6354 35.495 18.5172 35.4067 18.4225L29.6561 12.2839ZM1.37436 7.87607H28.6809C28.864 7.87591 29.0451 7.83827 29.2128 7.76549C29.3806 7.6927 29.5315 7.58634 29.6561 7.45305L35.4165 1.31763C35.484 1.24672 35.5349 1.16187 35.5656 1.06914C35.5963 0.976413 35.6059 0.878098 35.5939 0.781224C35.5819 0.684351 35.5485 0.591311 35.4961 0.508757C35.4436 0.426202 35.3735 0.356171 35.2907 0.303671C35.1798 0.233583 35.0505 0.197632 34.9191 0.200338H7.6126C7.42951 0.200529 7.24842 0.238189 7.08064 0.31097C6.91285 0.383751 6.76195 0.490091 6.63736 0.623358L0.883495 6.75877C0.794983 6.85368 0.736252 6.97216 0.714492 7.09972C0.692731 7.22727 0.708887 7.35836 0.760981 7.47693C0.813074 7.5955 0.898844 7.69641 1.00779 7.76731C1.11673 7.8382 1.24412 7.87599 1.37436 7.87607Z" fill="url(#paint0_linear_3_637)"/>
<path d="M68.7078 13.3107H54.0988V8.53149H72.5047V3.75232H54.0501C53.4195 3.74884 52.7944 3.86878 52.2106 4.1053C51.6267 4.34182 51.0954 4.69029 50.6471 5.13079C50.1988 5.5713 49.8423 6.09522 49.5979 6.67262C49.3535 7.25003 49.226 7.86961 49.2227 8.49597V13.3397C49.2251 13.9666 49.352 14.5869 49.596 15.1651C49.8401 15.7432 50.1965 16.2679 50.6448 16.7091C51.0932 17.1503 51.6248 17.4993 52.2091 17.7362C52.7934 17.9732 53.419 18.0933 54.0501 18.0898H68.6785V22.869H49.5705V27.6482H68.7078C69.6575 27.6534 70.5874 27.3788 71.3798 26.8589C72.1723 26.3391 72.7917 25.5974 73.1597 24.7277C73.4043 24.1504 73.5319 23.5308 73.5352 22.9045V18.0608C73.5327 17.4339 73.4058 16.8136 73.1617 16.2355C72.9177 15.6574 72.5613 15.1327 72.1129 14.6915C71.6646 14.2503 71.133 13.9013 70.5487 13.6643C69.9645 13.4274 69.3389 13.3072 68.7078 13.3107ZM97.009 3.75232H82.3448C81.3935 3.7448 80.4615 4.01807 79.6668 4.5375C78.8721 5.05693 78.2506 5.79909 77.8812 6.66988C77.6357 7.24799 77.5077 7.86857 77.5044 8.49597V22.9045C77.5076 23.5319 77.6357 24.1526 77.8812 24.7309C78.2506 25.6017 78.872 26.3439 79.6667 26.8633C80.4614 27.3827 81.3935 27.6558 82.3448 27.6482H97.009C97.6396 27.6516 98.2647 27.5317 98.8485 27.2952C99.4324 27.0587 99.9637 26.7102 100.412 26.2697C100.86 25.8292 101.217 25.3053 101.461 24.7279C101.706 24.1505 101.833 23.5309 101.836 22.9045V8.49597C101.833 7.86963 101.706 7.25006 101.461 6.67271C101.217 6.09535 100.86 5.57153 100.412 5.13118C99.9635 4.69053 99.4323 4.34194 98.8485 4.10535C98.2646 3.86875 97.6396 3.74879 97.009 3.75232ZM96.9733 22.869H82.3806V8.53149H96.9668L96.9733 22.869ZM148.371 3.75232H134.068C133.437 3.74884 132.812 3.86878 132.228 4.1053C131.644 4.34182 131.113 4.69029 130.665 5.13079C130.217 5.5713 129.86 6.09522 129.616 6.67262C129.371 7.25003 129.244 7.86961 129.24 8.49597V27.6482H134.117V19.7981H148.355V27.6482H153.231V8.49597C153.228 7.86684 153.099 7.24456 152.853 6.66499C152.607 6.08542 152.247 5.56003 151.795 5.11908C151.344 4.67813 150.809 4.33035 150.221 4.09578C149.633 3.8612 149.005 3.74448 148.371 3.75232ZM148.336 15.0189H134.097V8.53149H148.336V15.0189ZM205.309 3.75232H191.005C190.375 3.74884 189.75 3.86878 189.166 4.1053C188.582 4.34182 188.051 4.69029 187.602 5.13079C187.154 5.5713 186.797 6.09522 186.553 6.67262C186.309 7.25003 186.181 7.86961 186.178 8.49597V27.6482H191.054V19.7981H205.26V27.6482H210.136V8.49597C210.133 7.86963 210.005 7.25006 209.761 6.67271C209.516 6.09535 209.16 5.57153 208.711 5.13118C207.806 4.24156 206.582 3.74558 205.309 3.75232ZM205.26 15.0189H191.021V8.53149H205.26V15.0189ZM176.978 22.869H175.028L168.055 5.75441C167.816 5.16388 167.405 4.65777 166.874 4.30103C166.343 3.94429 165.718 3.75321 165.077 3.75232H160.75C160.117 3.74893 159.497 3.9323 158.968 4.27921C158.44 4.62613 158.027 5.12098 157.782 5.70113C157.619 6.08618 157.534 6.49928 157.532 6.91691V27.6482H162.408V8.53149H164.359L171.328 25.6461C171.571 26.2355 171.985 26.7396 172.518 27.094C173.051 27.4483 173.678 27.6368 174.319 27.6352H178.646C179.066 27.6375 179.483 27.5574 179.872 27.3994C180.262 27.2415 180.616 27.0089 180.915 26.7149C181.518 26.1214 181.86 25.3142 181.864 24.4707V3.75232H176.978V22.869ZM111.02 3.75232H106.144V22.9045C106.147 23.5322 106.275 24.1531 106.52 24.7315C106.766 25.3099 107.124 25.8345 107.574 26.2751C108.024 26.7158 108.557 27.0639 109.143 27.2995C109.729 27.5351 110.355 27.6536 110.987 27.6482H125.616V22.869H111.02V3.75232Z" fill="white"/>
</g>
</g>
<defs>
<linearGradient id="paint0_linear_3_637" x1="3.6499" y1="31.9398" x2="32.0692" y2="-0.313984" gradientUnits="userSpaceOnUse">
<stop offset="0.08" stop-color="#9945FF"/>
<stop offset="0.3" stop-color="#8752F3"/>
<stop offset="0.5" stop-color="#5497D5"/>
<stop offset="0.6" stop-color="#43B4CA"/>
<stop offset="0.72" stop-color="#28E0B9"/>
<stop offset="0.97" stop-color="#19FB9B"/>
</linearGradient>
<clipPath id="clip0_3_637">
<rect width="210" height="31" fill="white" transform="translate(0.135742 0.200195)"/>
</clipPath>
</defs>
</svg>
