<svg width="170" height="48" viewBox="0 0 170 48" fill="none" xmlns="http://www.w3.org/2000/svg">
<g clip-path="url(#clip0_3_661)">
<path d="M48.1783 0.200195H56.2459L39.4547 17.1013C33.3753 23.2221 23.5292 23.2221 17.4498 17.1013L0.665401 0.200195H8.73299L21.4869 13.041C25.2739 16.8724 31.4683 16.9195 35.3161 13.1488C35.3499 13.1151 35.3905 13.0747 35.4243 13.041L48.1783 0.200195ZM8.63155 47.2002H0.563965L17.4565 30.1913C23.536 24.0705 33.3821 24.0705 39.4615 30.1913L56.3473 47.2002H48.2797L35.4243 34.2584C31.6374 30.427 25.443 30.3799 21.5951 34.1506C21.5613 34.1843 21.5207 34.2247 21.4869 34.2584L8.63155 47.2002Z" fill="#0D9AD1"/>
<path d="M154.524 0.200195H154.531C156.594 0.240596 158.528 0.644608 160.326 1.41223C162.159 2.13272 163.768 3.13601 165.141 4.41538C166.528 5.70148 167.61 7.21653 168.387 8.95378C169.172 10.6641 169.564 12.4754 169.564 14.3877C169.564 16.3405 169.151 18.1989 168.32 19.9496C167.542 21.6532 166.433 23.1615 165.013 24.4813C163.633 25.7607 161.997 26.7841 160.13 27.545H160.124C158.277 28.2723 156.296 28.6359 154.186 28.6359H136.577V47.0386H130.382V0.200195L154.524 0.200195ZM154.186 22.9595C155.43 22.9595 156.607 22.7373 157.723 22.2929C158.852 21.8485 159.833 21.2357 160.671 20.4546C161.51 19.6803 162.179 18.7578 162.653 17.7208C163.133 16.6906 163.369 15.5796 163.369 14.3877C163.369 13.2363 163.133 12.1455 162.653 11.1152C162.179 10.085 161.503 9.15578 160.671 8.38143C159.833 7.60034 158.852 6.99432 157.723 6.54317C156.607 6.09876 155.43 5.87656 154.186 5.87656H136.577V22.9595H154.186Z" fill="#0D9AD1"/>
<path d="M85.3784 28.7369C88.4824 28.7369 91.4241 30.0432 93.3716 32.2922L106.166 47.0453H114.132L96.6311 26.5956C94.6836 24.3197 91.7284 22.9932 88.5974 22.9932H76.4723V5.95063H94.0817C95.326 5.95063 96.5027 6.17283 97.6185 6.61724C98.7478 7.06839 99.7283 7.68114 100.567 8.4555L100.58 8.46896C101.412 9.20292 102.068 10.085 102.548 11.1287C103.028 12.1589 103.265 13.27 103.265 14.4685C103.265 15.6604 103.022 16.7714 102.548 17.8016C102.257 18.4009 101.906 18.9665 101.487 19.485L105.517 23.9628C105.564 23.9089 105.618 23.8551 105.666 23.8012C106.856 22.5218 107.776 21.1011 108.418 19.5254C109.108 17.9363 109.453 16.2462 109.453 14.4618C109.453 12.5495 109.06 10.7314 108.276 9.02111C107.498 7.27713 106.416 5.76209 105.03 4.47598C103.651 3.19661 102.048 2.17985 100.222 1.41223C98.4164 0.644608 96.4824 0.240596 94.4131 0.200195H73.3616C72.5095 0.200195 71.7657 0.516671 71.1571 1.08902C70.5687 1.63444 70.2644 2.30779 70.2644 3.07541V47.0386H76.4588V28.7369H85.3784Z" fill="#0D9AD1"/>
</g>
<defs>
<clipPath id="clip0_3_661">
<rect width="169" height="47" fill="white" transform="translate(0.563965 0.200195)"/>
</clipPath>
</defs>
</svg>
